<svg width="20" height="21" viewBox="0 0 20 21" fill="none" xmlns="http://www.w3.org/2000/svg">
<g clip-path="url(#clip0_410_51)">
<path d="M15 20.6423H5C4.33718 20.6416 3.70172 20.378 3.23303 19.9093C2.76435 19.4406 2.50072 18.8052 2.5 18.1423V3.14233C2.50072 2.47951 2.76435 1.84405 3.23303 1.37537C3.70172 0.906682 4.33718 0.643058 5 0.642334H15C15.6628 0.643058 16.2983 0.906682 16.767 1.37537C17.2357 1.84405 17.4993 2.47951 17.5 3.14233V18.1423C17.4993 18.8052 17.2357 19.4406 16.767 19.9093C16.2983 20.378 15.6628 20.6416 15 20.6423ZM5 1.89233C4.66848 1.89233 4.35054 2.02403 4.11612 2.25845C3.8817 2.49287 3.75 2.81081 3.75 3.14233V18.1423C3.75 18.4739 3.8817 18.7918 4.11612 19.0262C4.35054 19.2606 4.66848 19.3923 5 19.3923H15C15.3315 19.3923 15.6495 19.2606 15.8839 19.0262C16.1183 18.7918 16.25 18.4739 16.25 18.1423V3.14233C16.25 2.81081 16.1183 2.49287 15.8839 2.25845C15.6495 2.02403 15.3315 1.89233 15 1.89233H5Z" fill="#606060"/>
<path d="M15 0.642334C15.6628 0.643058 16.2983 0.906682 16.767 1.37537C17.2357 1.84405 17.4993 2.47951 17.5 3.14233V18.1423C17.4993 18.8052 17.2357 19.4406 16.767 19.9093C16.2983 20.378 15.6628 20.6416 15 20.6423H5C4.33718 20.6416 3.70172 20.378 3.23303 19.9093C2.76435 19.4406 2.50072 18.8052 2.5 18.1423V3.14233C2.50072 2.47951 2.76435 1.84405 3.23303 1.37537C3.70172 0.906682 4.33718 0.643058 5 0.642334H15ZM5 19.3923H15C15.3315 19.3923 15.6495 19.2606 15.8839 19.0262C16.1183 18.7918 16.25 18.4739 16.25 18.1423V3.14233C16.25 2.81081 16.1183 2.49287 15.8839 2.25845C15.6495 2.02403 15.3315 1.89233 15 1.89233H5C4.66848 1.89233 4.35054 2.02403 4.11612 2.25845C3.8817 2.49287 3.75 2.81081 3.75 3.14233V18.1423C3.75 18.4739 3.8817 18.7918 4.11612 19.0262C4.35054 19.2606 4.66848 19.3923 5 19.3923ZM5 18.7673C4.83424 18.7673 4.67527 18.7015 4.55806 18.5843C4.44085 18.4671 4.375 18.3081 4.375 18.1423V3.14233C4.375 2.97657 4.44085 2.8176 4.55806 2.70039C4.67527 2.58318 4.83424 2.51733 5 2.51733H15C15.1658 2.51733 15.3247 2.58318 15.4419 2.70039C15.5592 2.8176 15.625 2.97657 15.625 3.14233V18.1423C15.625 18.3081 15.5592 18.4671 15.4419 18.5843C15.3247 18.7015 15.1658 18.7673 15 18.7673H5Z" fill="#606060"/>
</g>
<defs>
<clipPath id="clip0_410_51">
<rect width="20" height="20" fill="white" transform="translate(0 0.642334)"/>
</clipPath>
</defs>
</svg>
