<svg width="20" height="21" viewBox="0 0 20 21" fill="none" xmlns="http://www.w3.org/2000/svg">
<path d="M18.1249 10.4058C18.1196 10.3083 18.08 10.2158 18.0131 10.1448C17.9461 10.0737 17.8562 10.0286 17.7592 10.0175L16.7577 9.85537C16.7126 9.84798 16.6712 9.82623 16.6395 9.79335C16.6078 9.76048 16.5876 9.71825 16.5819 9.67295C16.5628 9.5499 16.5428 9.42217 16.5155 9.30108C16.5067 9.25703 16.5118 9.21133 16.5303 9.17037C16.5487 9.1294 16.5794 9.09521 16.6182 9.07256L17.5081 8.57842C17.5964 8.53338 17.6652 8.45743 17.7012 8.36503C17.7372 8.27262 17.738 8.1702 17.7034 8.07725L17.5491 7.65147C17.5152 7.5582 17.4482 7.48069 17.3608 7.43377C17.2733 7.38685 17.1717 7.37382 17.0753 7.39717L16.0772 7.59248C16.0326 7.60046 15.9866 7.59414 15.9458 7.57443C15.9049 7.55472 15.8714 7.52262 15.8499 7.48272C15.7917 7.37373 15.7284 7.2628 15.6624 7.15381C15.6384 7.11498 15.6272 7.06963 15.6302 7.0241C15.6333 6.97857 15.6506 6.93515 15.6796 6.8999L16.3436 6.13272C16.4111 6.06029 16.4498 5.96577 16.4526 5.86684C16.4554 5.76791 16.4221 5.67135 16.3589 5.59522L16.069 5.24717C16.006 5.17078 15.9168 5.1205 15.8188 5.10607C15.7208 5.09163 15.6209 5.11408 15.5385 5.16905L14.6647 5.69365C14.626 5.71687 14.5808 5.72701 14.5358 5.72257C14.4909 5.71814 14.4486 5.69938 14.4151 5.66905C14.3186 5.58428 14.2198 5.50264 14.1272 5.42725C14.0917 5.39921 14.066 5.36057 14.0539 5.31695C14.0418 5.27333 14.044 5.227 14.06 5.18467L14.4217 4.23155C14.4611 4.1406 14.4658 4.03836 14.4347 3.94424C14.4037 3.85011 14.3391 3.77067 14.2534 3.721L13.8592 3.49092C13.7734 3.44143 13.6724 3.42535 13.5754 3.44574C13.4785 3.46614 13.3925 3.52159 13.3339 3.60147L12.6952 4.40381C12.6722 4.43868 12.6378 4.46447 12.5979 4.47673C12.558 4.48899 12.515 4.48696 12.4764 4.471C12.4526 4.46123 12.251 4.37881 12.0944 4.32647C12.0514 4.31246 12.0141 4.28508 11.9878 4.24832C11.9615 4.21156 11.9477 4.16736 11.9483 4.12217L11.9635 3.10381C11.969 3.00437 11.938 2.90636 11.8764 2.82813C11.8147 2.7499 11.7267 2.69681 11.6288 2.67881L11.1815 2.60069C11.0841 2.58385 10.9838 2.60297 10.8994 2.65448C10.815 2.70599 10.7521 2.7864 10.7225 2.88076L10.3905 3.8499C10.3754 3.89293 10.3469 3.92998 10.3093 3.95564C10.2716 3.9813 10.2267 3.99421 10.1811 3.99248H9.80026C9.75505 3.99341 9.71071 3.98006 9.67354 3.95432C9.63637 3.92858 9.60826 3.89176 9.59323 3.84912L9.26276 2.88545C9.23368 2.7904 9.17096 2.70921 9.08633 2.65708C9.0017 2.60495 8.90096 2.58545 8.80299 2.60225L8.35495 2.68037C8.25763 2.69823 8.17009 2.7508 8.1086 2.82831C8.0471 2.90583 8.01583 3.00303 8.02057 3.10186L8.0362 4.12373C8.03651 4.1696 8.022 4.21434 7.99483 4.25129C7.96766 4.28824 7.92929 4.31543 7.88542 4.32881C7.79596 4.36358 7.60182 4.4378 7.51354 4.47061C7.43542 4.49873 7.35026 4.46787 7.28151 4.38858L6.64635 3.60733C6.58808 3.52696 6.50215 3.47098 6.40509 3.45014C6.30804 3.4293 6.2067 3.44508 6.12057 3.49444L5.7276 3.72217C5.6409 3.77194 5.57568 3.85203 5.54453 3.94702C5.51337 4.04201 5.51847 4.14517 5.55885 4.23662L5.92018 5.1874C5.93594 5.22982 5.93802 5.27611 5.9261 5.31976C5.91419 5.36341 5.8889 5.40223 5.85378 5.43076C5.75885 5.50889 5.66159 5.58701 5.56471 5.67373C5.53145 5.70383 5.48943 5.72249 5.4448 5.72699C5.40017 5.73148 5.35527 5.72158 5.31667 5.69873L4.45299 5.16397C4.37006 5.11002 4.27029 5.08819 4.17241 5.10258C4.07453 5.11696 3.98526 5.16657 3.92135 5.24209L3.63268 5.58936C3.56856 5.66497 3.53458 5.76157 3.53725 5.86067C3.53991 5.95978 3.57904 6.05442 3.64713 6.12647L4.31432 6.89287C4.34393 6.92741 4.36163 6.97056 4.3648 7.01594C4.36796 7.06132 4.35643 7.10651 4.3319 7.14483C4.2651 7.25108 4.20143 7.3628 4.14362 7.47451C4.12199 7.5147 4.08819 7.54701 4.04707 7.5668C4.00595 7.58659 3.95961 7.59284 3.91471 7.58467L2.91823 7.39209C2.82175 7.36881 2.72007 7.38187 2.63261 7.42877C2.54514 7.47568 2.478 7.55314 2.44401 7.64639L2.28776 8.07139C2.25322 8.16446 2.25403 8.26697 2.29003 8.35948C2.32603 8.452 2.39471 8.52809 2.48307 8.57334L3.37292 9.06748C3.41293 9.08957 3.44468 9.12408 3.46335 9.1658C3.48202 9.20751 3.48662 9.25417 3.47643 9.29873L3.46706 9.34834C3.44674 9.45733 3.42799 9.56045 3.41003 9.67022C3.40381 9.71494 3.38362 9.75656 3.35233 9.78911C3.32104 9.82167 3.28025 9.84349 3.23581 9.85147L2.23229 10.0136C2.13415 10.0256 2.04376 10.073 1.97798 10.1468C1.91221 10.2206 1.87556 10.3159 1.87487 10.4147V10.8671C1.8743 10.9663 1.91057 11.0623 1.97668 11.1363C2.04278 11.2104 2.134 11.2572 2.23268 11.2679L3.23581 11.4296C3.28088 11.4369 3.32237 11.4587 3.35406 11.4915C3.38575 11.5244 3.40593 11.5667 3.41159 11.612C3.43073 11.7355 3.45065 11.8628 3.47799 11.9839C3.4868 12.0279 3.48164 12.0736 3.46322 12.1146C3.4448 12.1556 3.41405 12.1898 3.37526 12.2124L2.48581 12.7073C2.39745 12.7524 2.32873 12.8283 2.29272 12.9207C2.2567 13.0131 2.25591 13.1155 2.29049 13.2085L2.44674 13.6343C2.48066 13.7275 2.54772 13.805 2.63512 13.8519C2.72253 13.8988 2.82414 13.9118 2.92057 13.8886L3.91862 13.6952C3.96325 13.6871 4.0093 13.6934 4.05015 13.7131C4.091 13.7328 4.12455 13.765 4.14596 13.805C4.20456 13.9144 4.26745 14.0249 4.33346 14.1339C4.35755 14.1727 4.36886 14.2181 4.36577 14.2636C4.36269 14.3092 4.34537 14.3526 4.31628 14.3878L3.65221 15.1546C3.58396 15.2265 3.54431 15.3208 3.54072 15.4198C3.53712 15.5189 3.56982 15.6158 3.63268 15.6925L3.92213 16.0405C3.98514 16.117 4.0743 16.1673 4.17232 16.1818C4.27034 16.1962 4.37023 16.1737 4.4526 16.1187L5.32643 15.594C5.36517 15.5708 5.41035 15.5607 5.4553 15.5651C5.50025 15.5696 5.54258 15.5883 5.57604 15.6187C5.67292 15.7034 5.77135 15.7851 5.86393 15.8605C5.89943 15.8885 5.92511 15.9271 5.93725 15.9707C5.9494 16.0143 5.94739 16.0607 5.93151 16.103L5.5694 17.0562C5.53001 17.1471 5.52539 17.2493 5.55643 17.3435C5.58747 17.4376 5.652 17.517 5.73776 17.5667L6.13268 17.7948C6.21846 17.8444 6.31949 17.8605 6.41643 17.8402C6.51338 17.8199 6.59941 17.7645 6.65807 17.6847L7.30456 16.8897C7.35924 16.8222 7.44518 16.7921 7.50885 16.8179C7.64479 16.8741 7.73581 16.9058 7.89713 16.9597C7.94011 16.9737 7.97748 17.0011 8.00383 17.0378C8.03017 17.0746 8.04411 17.1188 8.04362 17.164L8.02799 18.1815C8.02272 18.2809 8.05378 18.3789 8.11537 18.4571C8.17696 18.5353 8.26489 18.5884 8.36276 18.6065L8.81002 18.6847C8.90749 18.7017 9.00782 18.6826 9.09228 18.6311C9.17674 18.5796 9.23956 18.499 9.26901 18.4046L9.60104 17.437C9.61607 17.394 9.64452 17.3569 9.68222 17.3312C9.71991 17.3055 9.76485 17.2926 9.81042 17.2944H10.1913C10.2365 17.2934 10.2809 17.3068 10.318 17.3325C10.3552 17.3583 10.3833 17.3951 10.3983 17.4378L10.7292 18.4015C10.7548 18.4851 10.8066 18.5584 10.8769 18.6105C10.9472 18.6626 11.0323 18.6908 11.1198 18.6909C11.1431 18.691 11.1664 18.6889 11.1893 18.6847L11.6374 18.6065C11.7347 18.5887 11.8222 18.5361 11.8837 18.4586C11.9452 18.3811 11.9765 18.2839 11.9717 18.1851L11.9561 17.1632C11.9558 17.1182 11.9698 17.0742 11.9962 17.0377C12.0225 17.0012 12.0598 16.974 12.1026 16.9601C12.2526 16.9097 12.3581 16.869 12.4506 16.8331L12.4741 16.8241C12.5952 16.7823 12.6538 16.8331 12.6878 16.8753L13.3421 17.6812C13.4007 17.7609 13.4867 17.8162 13.5835 17.8365C13.6804 17.8568 13.7813 17.8407 13.8671 17.7913L14.2604 17.5636C14.3465 17.5139 14.4112 17.4342 14.4422 17.3398C14.4733 17.2455 14.4685 17.1429 14.4288 17.0519L14.0678 16.1011C14.0519 16.0587 14.0497 16.0124 14.0616 15.9687C14.0734 15.9251 14.0987 15.8862 14.1339 15.8577C14.2288 15.7796 14.326 15.7015 14.4229 15.6147C14.4564 15.5846 14.4987 15.5659 14.5435 15.5616C14.5884 15.5572 14.6335 15.5674 14.6721 15.5905L15.5467 16.114C15.6296 16.168 15.7294 16.1899 15.8273 16.1755C15.9253 16.1611 16.0145 16.1114 16.0784 16.0358L16.3674 15.6882C16.4316 15.6126 16.4655 15.516 16.4629 15.4169C16.4602 15.3178 16.4211 15.2231 16.353 15.1511L15.6866 14.3827C15.657 14.3482 15.6393 14.305 15.6361 14.2596C15.6329 14.2143 15.6445 14.1691 15.669 14.1308C15.7358 14.0249 15.7995 13.9132 15.8573 13.8011C15.879 13.761 15.9128 13.7287 15.9539 13.709C15.995 13.6892 16.0413 13.6829 16.0862 13.6909L17.0815 13.8851C17.178 13.9083 17.2797 13.8953 17.3671 13.8484C17.4546 13.8015 17.5217 13.724 17.5557 13.6308L17.71 13.2058C17.7445 13.1127 17.7437 13.0103 17.7077 12.9179C17.6717 12.8254 17.603 12.7494 17.5147 12.7042L16.6241 12.2093C16.5846 12.187 16.5534 12.1526 16.535 12.1111C16.5167 12.0697 16.5122 12.0234 16.5221 11.9792L16.5315 11.9296C16.5518 11.8206 16.5706 11.7175 16.5885 11.6077C16.5948 11.563 16.6149 11.5214 16.6462 11.4888C16.6775 11.4563 16.7183 11.4344 16.7628 11.4265L17.7663 11.2647C17.8647 11.2529 17.9553 11.2056 18.0213 11.1316C18.0874 11.0577 18.1242 10.9623 18.1249 10.8632V10.4058ZM7.09167 14.0776C7.04299 14.1623 6.97492 14.2342 6.89306 14.2874C6.81119 14.3406 6.71787 14.3737 6.62075 14.3838C6.52364 14.3939 6.4255 14.3809 6.33441 14.3457C6.24331 14.3106 6.16186 14.2543 6.09674 14.1815C5.21672 13.2085 4.73082 11.9425 4.73385 10.6305C4.73689 9.31856 5.22864 8.0548 6.11315 7.08584C6.17861 7.01311 6.26041 6.95698 6.35181 6.92206C6.44322 6.88714 6.54161 6.87444 6.63889 6.88501C6.73617 6.89558 6.82954 6.92911 6.91132 6.98284C6.99309 7.03656 7.06093 7.10896 7.10924 7.19405L8.89245 10.3327C8.94599 10.4263 8.97416 10.5323 8.97416 10.6401C8.97416 10.748 8.94599 10.854 8.89245 10.9476L7.09167 14.0776ZM9.99987 15.9206C9.62814 15.9207 9.25746 15.8814 8.89401 15.8034C8.79933 15.7823 8.71096 15.7391 8.63607 15.6774C8.56118 15.6158 8.50187 15.5373 8.46295 15.4484C8.42404 15.3596 8.4066 15.2628 8.41207 15.1659C8.41753 15.0691 8.44574 14.9748 8.4944 14.8909L10.2913 11.7659C10.3453 11.6718 10.4233 11.5935 10.5172 11.5391C10.6112 11.4847 10.7179 11.4561 10.8264 11.4562H14.4256C14.5226 11.456 14.6182 11.4787 14.7048 11.5224C14.7913 11.5661 14.8664 11.6296 14.9238 11.7077C14.9812 11.7858 15.0195 11.8763 15.0354 11.9719C15.0513 12.0676 15.0445 12.1656 15.0155 12.2581C14.3323 14.38 12.3436 15.9206 9.99987 15.9206ZM10.2932 9.51826L8.51549 6.3878C8.46732 6.30373 8.43959 6.20951 8.43456 6.11275C8.42954 6.016 8.44735 5.91941 8.48655 5.83081C8.52576 5.74221 8.58526 5.66407 8.66025 5.60272C8.73524 5.54137 8.82361 5.49852 8.91823 5.47764C9.27389 5.40269 9.63639 5.36498 9.99987 5.36514C12.3436 5.36514 14.3323 6.90576 15.0143 9.02881C15.0433 9.12132 15.0502 9.21936 15.0342 9.31499C15.0183 9.41063 14.9801 9.50116 14.9226 9.57926C14.8652 9.65736 14.7901 9.72083 14.7036 9.76453C14.6171 9.80822 14.5214 9.83092 14.4245 9.83076H10.8307C10.7215 9.83098 10.6141 9.80216 10.5197 9.74725C10.4252 9.69234 10.3471 9.61331 10.2932 9.51826Z" fill="#606060"/>
</svg>
